<svg xmlns="http://www.w3.org/2000/svg" xmlns:xlink="http://www.w3.org/1999/xlink" width="500" zoomAndPan="magnify" viewBox="0 0 375 374.999991" height="500" preserveAspectRatio="xMidYMid meet" version="1.0"><defs><g/><clipPath id="c39ecb95c2"><path d="M 264.25 245.800781 L 280.75 245.800781 L 280.75 262.300781 L 264.25 262.300781 Z M 264.25 245.800781 " clip-rule="nonzero"/></clipPath></defs><g clip-path="url(#c39ecb95c2)"><path fill="#e60e0e" d="M 272.664062 245.800781 C 277.308594 245.800781 281.078125 249.570312 281.078125 254.214844 C 281.078125 258.863281 277.308594 262.628906 272.664062 262.628906 C 268.015625 262.628906 264.25 258.863281 264.25 254.214844 C 264.25 249.570312 268.015625 245.800781 272.664062 245.800781 Z M 272.664062 245.800781 " fill-opacity="1" fill-rule="evenodd"/></g><path stroke-linecap="butt" transform="matrix(1.37959, 0, 0, 1.37959, -0.296309, 95.823157)" fill="none" stroke-linejoin="miter" d="M 43.006597 47.433345 C 39.96278 46.198829 36.48575 45.581572 32.575508 45.581572 C 27.575154 45.581572 23.209046 46.617885 19.474354 48.690512 C 15.739662 50.763139 12.843081 53.668214 10.784611 57.402906 C 8.740299 61.137599 7.718143 65.563167 7.718143 70.67961 L 7.718143 112.607832 L 21.722531 112.607832 L 21.722531 87.948669 L 21.988688 87.948669 C 22.900418 89.273791 24.033001 90.389386 25.383606 91.301115 C 26.737042 92.198687 28.237715 92.881068 29.882792 93.353921 C 31.544857 93.838101 33.308855 94.081606 35.177617 94.081606 C 39.57487 94.081606 43.425653 93.087764 46.735626 91.102913 C 50.056926 89.118061 52.66753 86.368716 54.564606 82.854877 C 56.461683 79.326881 57.410221 75.266571 57.410221 70.67961 C 57.410221 67.004379 56.835435 63.651933 55.688695 60.622273 C 54.541954 57.578457 52.902541 54.931044 50.770453 52.682867 C 48.638366 50.417701 46.050414 48.66786 43.006597 47.433345 Z M 26.90693 59.25468 C 28.509535 58.195714 30.398117 57.666232 32.575508 57.666232 C 34.73591 57.666232 36.596177 58.195714 38.153479 59.25468 C 39.727769 60.313645 40.948127 61.760519 41.817385 63.600967 C 42.697968 65.438583 43.139675 67.497052 43.139675 69.776375 C 43.139675 72.069856 42.697968 74.119831 41.817385 75.929132 C 40.948127 77.738434 39.727769 79.171151 38.153479 80.230116 C 36.596177 81.274924 34.73591 81.795912 32.575508 81.795912 C 30.398117 81.795912 28.509535 81.274924 26.90693 80.230116 C 25.318482 79.171151 24.098124 77.738434 23.245855 75.929132 C 22.407744 74.119831 21.988688 72.069856 21.988688 69.776375 C 21.988688 67.497052 22.407744 65.438583 23.245855 63.600967 C 24.098124 61.760519 25.318482 60.313645 26.90693 59.25468 Z M 57.832108 38.984276 C 59.463028 40.603869 61.396913 41.410835 63.633764 41.410835 C 65.853627 41.410835 67.779018 40.603869 69.412769 38.984276 C 71.043688 37.353356 71.859148 35.419471 71.859148 33.185451 C 71.859148 30.965588 71.043688 29.031703 69.412769 27.383795 C 67.779018 25.721729 65.853627 24.892112 63.633764 24.892112 C 61.396913 24.892112 59.463028 25.721729 57.832108 27.383795 C 56.215346 29.031703 55.405549 30.965588 55.405549 33.185451 C 55.405549 35.419471 56.215346 37.353356 57.832108 38.984276 Z M 56.597593 46.660357 L 56.597593 92.999989 L 70.689756 92.999989 L 70.689756 46.660357 Z M 78.807545 89.338915 C 81.219946 91.779631 84.563898 92.999989 88.84223 92.999989 L 102.031159 92.999989 L 102.031159 81.26643 L 91.908698 81.26643 C 91.189508 81.26643 90.57225 81.008767 90.056925 80.493442 C 89.5416 79.980948 89.283937 79.360859 89.283937 78.641669 L 89.283937 58.130591 L 102.031159 58.130591 L 102.031159 46.660357 L 89.283937 46.660357 L 89.283937 35.368505 L 75.191774 35.368505 L 75.191774 46.660357 L 67.603468 46.660357 L 67.603468 58.130591 L 75.191774 58.130591 L 75.191774 79.457128 C 75.191774 83.605214 76.395143 86.898199 78.807545 89.338915 Z M 101.575294 81.883687 L 101.575294 92.999989 L 125.857873 92.999989 C 128.694993 92.999989 131.237642 92.337428 133.488651 91.015138 C 135.753817 89.692847 137.560287 87.920355 138.913723 85.700492 C 140.281317 83.463641 140.96653 80.986115 140.96653 78.267916 C 140.96653 74.841853 140.281317 72.047204 138.913723 69.886802 C 137.560287 67.709411 135.666042 66.129458 133.225325 65.144111 C 130.781778 64.144607 127.879534 63.643439 124.512931 63.643439 L 116.570693 63.643439 C 115.718424 63.643439 115.004897 63.357461 114.432942 62.782675 C 113.858156 62.210721 113.572179 61.505688 113.572179 60.667577 C 113.572179 59.871937 113.858156 59.209376 114.432942 58.682725 C 115.004897 58.136254 115.718424 57.864434 116.570693 57.864434 L 136.708018 57.864434 L 136.708018 46.660357 L 114.387639 46.660357 C 111.683597 46.660357 109.197577 47.322918 106.932411 48.645209 C 104.684234 49.970331 102.911742 51.720171 101.617766 53.894731 C 100.32379 56.057964 99.678218 58.461871 99.678218 61.106453 C 99.678218 64.549505 100.38325 67.335659 101.793316 69.467747 C 103.206214 71.599834 105.131605 73.16563 107.572321 74.165134 C 110.013037 75.164639 112.742562 75.662975 115.755233 75.662975 L 123.873021 75.662975 C 124.476122 75.662975 125.019762 75.796054 125.503941 76.062211 C 125.990952 76.325536 126.378861 76.70212 126.673333 77.186299 C 126.981962 77.670479 127.137692 78.214119 127.137692 78.817219 C 127.137692 79.360859 126.981962 79.876184 126.673333 80.363195 C 126.378861 80.833217 125.990952 81.206969 125.503941 81.487283 C 125.019762 81.750609 124.476122 81.883687 123.873021 81.883687 Z M 147.181579 89.338915 C 149.593981 91.779631 152.937932 92.999989 157.216264 92.999989 L 170.405193 92.999989 L 170.405193 81.26643 L 160.282733 81.26643 C 159.563542 81.26643 158.946285 81.008767 158.430959 80.493442 C 157.915634 79.980948 157.657972 79.360859 157.657972 78.641669 L 157.657972 58.130591 L 170.405193 58.130591 L 170.405193 46.660357 L 157.657972 46.660357 L 157.657972 35.368505 L 143.565808 35.368505 L 143.565808 46.660357 L 135.977502 46.660357 L 135.977502 58.130591 L 143.565808 58.130591 L 143.565808 79.457128 C 143.565808 83.605214 144.769177 86.898199 147.181579 89.338915 Z M 179.961362 90.927362 C 183.755515 93.028304 188.033847 94.081606 192.79919 94.081606 C 197.488083 94.081606 201.729607 93.028304 205.52376 90.927362 C 209.33207 88.809432 212.330583 85.921346 214.522131 82.260271 C 216.727837 78.582208 217.832105 74.451112 217.832105 69.864151 C 217.832105 65.231886 216.727837 61.092295 214.522131 57.445378 C 212.330583 53.798461 209.354721 50.910374 205.588883 48.778287 C 201.825876 46.6462 197.561701 45.581572 192.79919 45.581572 C 188.033847 45.581572 183.755515 46.6462 179.961362 48.778287 C 176.167209 50.910374 173.168695 53.798461 170.96299 57.445378 C 168.771442 61.092295 167.675668 65.231886 167.675668 69.864151 C 167.675668 74.451112 168.771442 78.582208 170.96299 82.260271 C 173.168695 85.921346 176.167209 88.809432 179.961362 90.927362 Z M 198.575363 80.272588 C 196.958601 81.348542 195.03321 81.883687 192.79919 81.883687 C 190.562338 81.883687 188.614296 81.348542 186.95223 80.272588 C 185.307153 79.185308 184.027335 77.738434 183.115605 75.929132 C 182.218033 74.119831 181.770663 72.069856 181.770663 69.776375 C 181.770663 67.556513 182.218033 65.540515 183.115605 63.731214 C 184.027335 61.924744 185.307153 60.483532 186.95223 59.41041 C 188.614296 58.320299 190.562338 57.776659 192.79919 57.776659 C 195.03321 57.776659 196.958601 58.320299 198.575363 59.41041 C 200.209114 60.483532 201.471944 61.924744 202.369516 63.731214 C 203.281245 65.540515 203.73711 67.556513 203.73711 69.776375 C 203.73711 72.069856 203.281245 74.119831 202.369516 75.929132 C 201.471944 77.738434 200.209114 79.185308 198.575363 80.272588 Z M 251.922853 47.433345 C 248.879036 46.198829 245.402006 45.581572 241.491763 45.581572 C 236.49141 45.581572 232.125302 46.617885 228.39061 48.690512 C 224.655917 50.763139 221.759337 53.668214 219.700867 57.402906 C 217.656555 61.137599 216.634399 65.563167 216.634399 70.67961 L 216.634399 112.607832 L 230.638787 112.607832 L 230.638787 87.948669 L 230.904944 87.948669 C 231.816673 89.273791 232.949256 90.389386 234.299862 91.301115 C 235.653298 92.198687 237.153971 92.881068 238.799047 93.353921 C 240.461113 93.838101 242.225111 94.081606 244.093873 94.081606 C 248.491126 94.081606 252.341908 93.087764 255.651882 91.102913 C 258.973182 89.118061 261.583785 86.368716 263.480862 82.854877 C 265.377938 79.326881 266.326477 75.266571 266.326477 70.67961 C 266.326477 67.004379 265.751691 63.651933 264.604951 60.622273 C 263.45821 57.578457 261.818796 54.931044 259.686709 52.682867 C 257.554621 50.417701 254.966669 48.66786 251.922853 47.433345 Z M 235.823186 59.25468 C 237.425791 58.195714 239.314373 57.666232 241.491763 57.666232 C 243.652165 57.666232 245.512433 58.195714 247.069735 59.25468 C 248.644025 60.313645 249.864383 61.760519 250.730809 63.600967 C 251.614224 65.438583 252.055931 67.497052 252.055931 69.776375 C 252.055931 72.069856 251.614224 74.119831 250.730809 75.929132 C 249.864383 77.738434 248.644025 79.171151 247.069735 80.230116 C 245.512433 81.274924 243.652165 81.795912 241.491763 81.795912 C 239.314373 81.795912 237.425791 81.274924 235.823186 80.230116 C 234.234738 79.171151 233.01438 77.738434 232.162111 75.929132 C 231.324 74.119831 230.904944 72.069856 230.904944 69.776375 C 230.904944 67.497052 231.324 65.438583 232.162111 63.600967 C 233.01438 61.760519 234.234738 60.313645 235.823186 59.25468 Z M 235.823186 59.25468 " stroke="#e60e0e" stroke-width="6.776243" stroke-opacity="1" stroke-miterlimit="4"/><g fill="#ffde59" fill-opacity="1"><g transform="translate(3.6269, 224.125015)"><g><path d="M 41 -65.421875 C 46.40625 -65.421875 51.203125 -64.566406 55.390625 -62.859375 C 59.585938 -61.160156 63.160156 -58.753906 66.109375 -55.640625 C 69.054688 -52.523438 71.320312 -48.867188 72.90625 -44.671875 C 74.488281 -40.484375 75.28125 -35.851562 75.28125 -30.78125 C 75.28125 -24.46875 73.96875 -18.878906 71.34375 -14.015625 C 68.726562 -9.160156 65.132812 -5.359375 60.5625 -2.609375 C 56 0.128906 50.679688 1.5 44.609375 1.5 C 42.035156 1.5 39.601562 1.164062 37.3125 0.5 C 35.03125 -0.164062 32.957031 -1.117188 31.09375 -2.359375 C 29.226562 -3.609375 27.671875 -5.148438 26.421875 -6.984375 L 26.046875 -6.984375 L 26.046875 27.046875 L 6.734375 27.046875 L 6.734375 -30.78125 C 6.734375 -37.84375 8.144531 -43.945312 10.96875 -49.09375 C 13.789062 -54.25 17.773438 -58.257812 22.921875 -61.125 C 28.078125 -63.988281 34.101562 -65.421875 41 -65.421875 Z M 41 -48.734375 C 38.007812 -48.734375 35.410156 -48.003906 33.203125 -46.546875 C 31.003906 -45.085938 29.320312 -43.09375 28.15625 -40.5625 C 27 -38.03125 26.421875 -35.1875 26.421875 -32.03125 C 26.421875 -28.875 27 -26.046875 28.15625 -23.546875 C 29.320312 -21.054688 31.003906 -19.082031 33.203125 -17.625 C 35.410156 -16.175781 38.007812 -15.453125 41 -15.453125 C 43.988281 -15.453125 46.5625 -16.175781 48.71875 -17.625 C 50.882812 -19.082031 52.566406 -21.054688 53.765625 -23.546875 C 54.972656 -26.046875 55.578125 -28.875 55.578125 -32.03125 C 55.578125 -35.1875 54.972656 -38.03125 53.765625 -40.5625 C 52.566406 -43.09375 50.882812 -45.085938 48.71875 -46.546875 C 46.5625 -48.003906 43.988281 -48.734375 41 -48.734375 Z M 41 -48.734375 "/></g></g></g><g fill="#ffde59" fill-opacity="1"><g transform="translate(70.542623, 224.125015)"><g><path d="M 7.234375 0 L 7.234375 -63.9375 L 26.671875 -63.9375 L 26.671875 0 Z M 16.953125 -71.171875 C 13.878906 -71.171875 11.21875 -72.289062 8.96875 -74.53125 C 6.726562 -76.769531 5.609375 -79.429688 5.609375 -82.515625 C 5.609375 -85.585938 6.726562 -88.265625 8.96875 -90.546875 C 11.21875 -92.828125 13.878906 -93.96875 16.953125 -93.96875 C 20.023438 -93.96875 22.679688 -92.828125 24.921875 -90.546875 C 27.171875 -88.265625 28.296875 -85.585938 28.296875 -82.515625 C 28.296875 -79.429688 27.171875 -76.769531 24.921875 -74.53125 C 22.679688 -72.289062 20.023438 -71.171875 16.953125 -71.171875 Z M 16.953125 -71.171875 "/></g></g></g><g fill="#ffde59" fill-opacity="1"><g transform="translate(91.599699, 224.125015)"><g><path d="M 30.65625 0 C 24.757812 0 20.148438 -1.679688 16.828125 -5.046875 C 13.503906 -8.410156 11.84375 -12.957031 11.84375 -18.6875 L 11.84375 -79.515625 L 31.28125 -79.515625 L 31.28125 -19.8125 C 31.28125 -18.8125 31.632812 -17.957031 32.34375 -17.25 C 33.050781 -16.550781 33.898438 -16.203125 34.890625 -16.203125 L 48.859375 -16.203125 L 48.859375 0 Z M 1.375 -48.109375 L 1.375 -63.9375 L 48.859375 -63.9375 L 48.859375 -48.109375 Z M 1.375 -48.109375 "/></g></g></g><g fill="#ffde59" fill-opacity="1"><g transform="translate(132.47069, 224.125015)"><g><path d="M 7.359375 0 L 7.359375 -15.328125 L 38.140625 -15.328125 C 38.960938 -15.328125 39.707031 -15.515625 40.375 -15.890625 C 41.039062 -16.265625 41.582031 -16.78125 42 -17.4375 C 42.414062 -18.101562 42.625 -18.8125 42.625 -19.5625 C 42.625 -20.394531 42.414062 -21.144531 42 -21.8125 C 41.582031 -22.476562 41.039062 -22.992188 40.375 -23.359375 C 39.707031 -23.734375 38.960938 -23.921875 38.140625 -23.921875 L 26.921875 -23.921875 C 22.765625 -23.921875 19.003906 -24.609375 15.640625 -25.984375 C 12.273438 -27.359375 9.613281 -29.519531 7.65625 -32.46875 C 5.707031 -35.414062 4.734375 -39.257812 4.734375 -44 C 4.734375 -47.644531 5.625 -50.960938 7.40625 -53.953125 C 9.195312 -56.953125 11.648438 -59.363281 14.765625 -61.1875 C 17.878906 -63.019531 21.304688 -63.9375 25.046875 -63.9375 L 55.828125 -63.9375 L 55.828125 -48.484375 L 28.046875 -48.484375 C 26.878906 -48.484375 25.898438 -48.109375 25.109375 -47.359375 C 24.316406 -46.609375 23.921875 -45.691406 23.921875 -44.609375 C 23.921875 -43.453125 24.316406 -42.476562 25.109375 -41.6875 C 25.898438 -40.894531 26.878906 -40.5 28.046875 -40.5 L 39 -40.5 C 43.65625 -40.5 47.664062 -39.8125 51.03125 -38.4375 C 54.394531 -37.070312 57.007812 -34.894531 58.875 -31.90625 C 60.75 -28.914062 61.6875 -25.050781 61.6875 -20.3125 C 61.6875 -16.570312 60.75 -13.164062 58.875 -10.09375 C 57.007812 -7.019531 54.519531 -4.566406 51.40625 -2.734375 C 48.289062 -0.910156 44.78125 0 40.875 0 Z M 7.359375 0 "/></g></g></g><g fill="#ffde59" fill-opacity="1"><g transform="translate(185.927903, 224.125015)"><g><path d="M 30.65625 0 C 24.757812 0 20.148438 -1.679688 16.828125 -5.046875 C 13.503906 -8.410156 11.84375 -12.957031 11.84375 -18.6875 L 11.84375 -79.515625 L 31.28125 -79.515625 L 31.28125 -19.8125 C 31.28125 -18.8125 31.632812 -17.957031 32.34375 -17.25 C 33.050781 -16.550781 33.898438 -16.203125 34.890625 -16.203125 L 48.859375 -16.203125 L 48.859375 0 Z M 1.375 -48.109375 L 1.375 -63.9375 L 48.859375 -63.9375 L 48.859375 -48.109375 Z M 1.375 -48.109375 "/></g></g></g><g fill="#ffde59" fill-opacity="1"><g transform="translate(226.798906, 224.125015)"><g><path d="M 38.890625 1.5 C 32.316406 1.5 26.410156 0.046875 21.171875 -2.859375 C 15.941406 -5.773438 11.8125 -9.765625 8.78125 -14.828125 C 5.75 -19.898438 4.234375 -25.59375 4.234375 -31.90625 C 4.234375 -38.300781 5.75 -44.007812 8.78125 -49.03125 C 11.8125 -54.0625 15.941406 -58.050781 21.171875 -61 C 26.410156 -63.945312 32.316406 -65.421875 38.890625 -65.421875 C 45.453125 -65.421875 51.328125 -63.945312 56.515625 -61 C 61.710938 -58.050781 65.828125 -54.0625 68.859375 -49.03125 C 71.890625 -44.007812 73.40625 -38.300781 73.40625 -31.90625 C 73.40625 -25.59375 71.890625 -19.898438 68.859375 -14.828125 C 65.828125 -9.765625 61.691406 -5.773438 56.453125 -2.859375 C 51.222656 0.046875 45.367188 1.5 38.890625 1.5 Z M 38.890625 -15.328125 C 41.960938 -15.328125 44.617188 -16.070312 46.859375 -17.5625 C 49.097656 -19.0625 50.84375 -21.054688 52.09375 -23.546875 C 53.34375 -26.046875 53.96875 -28.875 53.96875 -32.03125 C 53.96875 -35.101562 53.34375 -37.882812 52.09375 -40.375 C 50.84375 -42.875 49.097656 -44.867188 46.859375 -46.359375 C 44.617188 -47.859375 41.960938 -48.609375 38.890625 -48.609375 C 35.804688 -48.609375 33.125 -47.859375 30.84375 -46.359375 C 28.5625 -44.867188 26.796875 -42.875 25.546875 -40.375 C 24.296875 -37.882812 23.671875 -35.101562 23.671875 -32.03125 C 23.671875 -28.875 24.296875 -26.046875 25.546875 -23.546875 C 26.796875 -21.054688 28.5625 -19.0625 30.84375 -17.5625 C 33.125 -16.070312 35.804688 -15.328125 38.890625 -15.328125 Z M 38.890625 -15.328125 "/></g></g></g><g fill="#ffde59" fill-opacity="1"><g transform="translate(291.84538, 224.125015)"><g><path d="M 41 -65.421875 C 46.40625 -65.421875 51.203125 -64.566406 55.390625 -62.859375 C 59.585938 -61.160156 63.160156 -58.753906 66.109375 -55.640625 C 69.054688 -52.523438 71.320312 -48.867188 72.90625 -44.671875 C 74.488281 -40.484375 75.28125 -35.851562 75.28125 -30.78125 C 75.28125 -24.46875 73.96875 -18.878906 71.34375 -14.015625 C 68.726562 -9.160156 65.132812 -5.359375 60.5625 -2.609375 C 56 0.128906 50.679688 1.5 44.609375 1.5 C 42.035156 1.5 39.601562 1.164062 37.3125 0.5 C 35.03125 -0.164062 32.957031 -1.117188 31.09375 -2.359375 C 29.226562 -3.609375 27.671875 -5.148438 26.421875 -6.984375 L 26.046875 -6.984375 L 26.046875 27.046875 L 6.734375 27.046875 L 6.734375 -30.78125 C 6.734375 -37.84375 8.144531 -43.945312 10.96875 -49.09375 C 13.789062 -54.25 17.773438 -58.257812 22.921875 -61.125 C 28.078125 -63.988281 34.101562 -65.421875 41 -65.421875 Z M 41 -48.734375 C 38.007812 -48.734375 35.410156 -48.003906 33.203125 -46.546875 C 31.003906 -45.085938 29.320312 -43.09375 28.15625 -40.5625 C 27 -38.03125 26.421875 -35.1875 26.421875 -32.03125 C 26.421875 -28.875 27 -26.046875 28.15625 -23.546875 C 29.320312 -21.054688 31.003906 -19.082031 33.203125 -17.625 C 35.410156 -16.175781 38.007812 -15.453125 41 -15.453125 C 43.988281 -15.453125 46.5625 -16.175781 48.71875 -17.625 C 50.882812 -19.082031 52.566406 -21.054688 53.765625 -23.546875 C 54.972656 -26.046875 55.578125 -28.875 55.578125 -32.03125 C 55.578125 -35.1875 54.972656 -38.03125 53.765625 -40.5625 C 52.566406 -43.09375 50.882812 -45.085938 48.71875 -46.546875 C 46.5625 -48.003906 43.988281 -48.734375 41 -48.734375 Z M 41 -48.734375 "/></g></g></g><g fill="#ffde59" fill-opacity="1"><g transform="translate(45.528088, 260.061041)"><g><path d="M 2.15625 0 L 4.015625 0 L 4.015625 -6.234375 L 10.0625 -6.234375 L 10.0625 -7.9375 L 4.015625 -7.9375 L 4.015625 -13.046875 L 10.625 -13.046875 L 10.625 -14.78125 L 2.15625 -14.78125 Z M 2.15625 0 "/></g></g></g><g fill="#ffde59" fill-opacity="1"><g transform="translate(60.467743, 260.061041)"><g><path d="M 8.859375 0.28125 C 13.359375 0.28125 16.53125 -2.890625 16.53125 -7.390625 C 16.53125 -11.890625 13.359375 -15.046875 8.859375 -15.046875 C 4.375 -15.046875 1.21875 -11.890625 1.21875 -7.390625 C 1.21875 -2.890625 4.375 0.28125 8.859375 0.28125 Z M 3.125 -7.390625 C 3.125 -10.828125 5.46875 -13.1875 8.859375 -13.1875 C 12.265625 -13.1875 14.609375 -10.828125 14.609375 -7.390625 C 14.609375 -3.953125 12.265625 -1.578125 8.859375 -1.578125 C 5.46875 -1.578125 3.125 -3.953125 3.125 -7.390625 Z M 3.125 -7.390625 "/></g></g></g><g fill="#ffde59" fill-opacity="1"><g transform="translate(81.35731, 260.061041)"><g><path d="M 2.15625 0 L 4.015625 0 L 4.015625 -5.296875 L 7.265625 -5.296875 L 10.875 0 L 13.109375 0 L 9.390625 -5.484375 C 11.546875 -6.015625 12.875 -7.640625 12.875 -10.03125 C 12.875 -12.96875 10.84375 -14.78125 7.796875 -14.78125 L 2.15625 -14.78125 Z M 4.015625 -7.078125 L 4.015625 -13 L 7.578125 -13 C 9.734375 -13 10.984375 -11.90625 10.984375 -10.03125 C 10.984375 -8.140625 9.734375 -7.078125 7.578125 -7.078125 Z M 4.015625 -7.078125 "/></g></g></g><g fill="#ffde59" fill-opacity="1"><g transform="translate(98.89215, 260.061041)"><g><path d="M 2.15625 0 L 4.015625 0 L 4.015625 -11.3125 L 8.90625 -3.921875 L 10.421875 -3.921875 L 15.328125 -11.296875 L 15.328125 0 L 17.1875 0 L 17.1875 -14.78125 L 15.453125 -14.78125 L 9.6875 -6.015625 L 3.890625 -14.78125 L 2.15625 -14.78125 Z M 2.15625 0 "/></g></g></g><g fill="#ffde59" fill-opacity="1"><g transform="translate(121.385249, 260.061041)"><g><path d="M 7.6875 0.25 C 11.25 0.25 13.40625 -2.09375 13.40625 -6.015625 L 13.40625 -14.78125 L 11.546875 -14.78125 L 11.546875 -6.140625 C 11.546875 -3.125 10.21875 -1.5625 7.6875 -1.5625 C 5.171875 -1.5625 3.828125 -3.125 3.828125 -6.140625 L 3.828125 -14.78125 L 1.984375 -14.78125 L 1.984375 -6.015625 C 1.984375 -2.09375 4.109375 0.25 7.6875 0.25 Z M 7.6875 0.25 "/></g></g></g><g fill="#ffde59" fill-opacity="1"><g transform="translate(139.932829, 260.061041)"><g><path d="M 2.15625 0 L 11.1875 0 L 11.1875 -1.765625 L 4.015625 -1.765625 L 4.015625 -14.78125 L 2.15625 -14.78125 Z M 2.15625 0 "/></g></g></g><g fill="#ffde59" fill-opacity="1"><g transform="translate(154.935782, 260.061041)"><g><path d="M 0.359375 0 L 2.34375 0 L 3.6875 -3.359375 L 10.890625 -3.359375 L 12.28125 0 L 14.25 0 L 8.171875 -14.78125 L 6.4375 -14.78125 Z M 4.40625 -5.09375 L 7.296875 -12.1875 L 10.203125 -5.09375 Z M 4.40625 -5.09375 "/></g></g></g><g fill="#ffde59" fill-opacity="1"><g transform="translate(172.702706, 260.061041)"><g/></g></g><g fill="#ffde59" fill-opacity="1"><g transform="translate(181.101681, 260.061041)"><g><path d="M 4.171875 0 L 6.03125 0 L 6.03125 -14.78125 L 4.578125 -14.78125 L 4.34375 -13.703125 C 4.109375 -12.6875 3.6875 -12.390625 2.40625 -12.390625 L 0.78125 -12.390625 L 0.78125 -10.65625 L 4.171875 -10.65625 Z M 4.171875 0 "/></g></g></g><g fill="#ffde59" fill-opacity="1"><g transform="translate(192.45451, 260.061041)"><g/></g></g><g fill="#ffde59" fill-opacity="1"><g transform="translate(200.853486, 260.061041)"><g><path d="M 2.15625 0 L 11.1875 0 L 11.1875 -1.765625 L 4.015625 -1.765625 L 4.015625 -14.78125 L 2.15625 -14.78125 Z M 2.15625 0 "/></g></g></g><g fill="#ffde59" fill-opacity="1"><g transform="translate(215.856446, 260.061041)"><g><path d="M 2.15625 0 L 4.015625 0 L 4.015625 -14.78125 L 2.15625 -14.78125 Z M 2.15625 0 "/></g></g></g><g fill="#ffde59" fill-opacity="1"><g transform="translate(225.183772, 260.061041)"><g><path d="M 6.25 0 L 7.984375 0 L 13.84375 -14.78125 L 11.890625 -14.78125 L 9.421875 -8.546875 L 7.109375 -2.6875 L 4.796875 -8.546875 L 2.34375 -14.78125 L 0.359375 -14.78125 Z M 6.25 0 "/></g></g></g><g fill="#ffde59" fill-opacity="1"><g transform="translate(242.549813, 260.061041)"><g><path d="M 2.15625 0 L 11.359375 0 L 11.359375 -1.734375 L 4.015625 -1.734375 L 4.015625 -6.671875 L 10.59375 -6.671875 L 10.59375 -8.375 L 4.015625 -8.375 L 4.015625 -13.046875 L 11.125 -13.046875 L 11.125 -14.78125 L 2.15625 -14.78125 Z M 2.15625 0 "/></g></g></g><g fill="#ffde59" fill-opacity="1"><g transform="translate(258.450971, 260.061041)"><g/></g></g></svg>